<?xml version="1.0" standalone="no"?>
<!DOCTYPE svg PUBLIC "-//W3C//DTD SVG 20010904//EN"
 "http://www.w3.org/TR/2001/REC-SVG-20010904/DTD/svg10.dtd">
<svg version="1.0" xmlns="http://www.w3.org/2000/svg"
 width="1088.000000pt" height="1088.000000pt" viewBox="0 0 1088.000000 1088.000000"
 preserveAspectRatio="xMidYMid meet">
<metadata>
Created by potrace 1.11, written by Peter Selinger 2001-2013
</metadata>
<g transform="translate(0.000000,1088.000000) scale(0.100000,-0.100000)"
fill="#000000" stroke="none">
<path d="M840 5440 l0 -5440 48 5 c61 6 148 13 242 21 115 9 150 13 160 19 5
3 11 1 15 -5 4 -6 12 -7 18 -3 7 4 26 8 42 8 17 0 35 3 40 5 6 3 38 5 72 5 35
0 63 2 63 5 0 3 32 6 72 8 43 2 75 8 80 15 5 8 8 8 8 1 0 -6 12 -10 28 -8 15
2 56 6 92 9 36 3 88 7 115 10 213 20 282 26 335 30 25 2 77 6 115 10 191 17
330 29 465 40 19 1 69 6 110 10 41 4 100 9 130 10 30 2 55 5 55 6 0 1 18 3 40
4 22 1 74 5 115 9 41 4 100 9 130 12 30 2 80 6 110 9 30 3 84 7 120 10 36 2
83 7 105 9 22 3 74 8 115 11 41 4 98 8 125 11 28 2 73 6 100 8 28 3 84 8 125
11 41 4 95 9 120 11 25 2 70 6 100 8 30 3 84 8 120 10 36 3 88 8 115 10 28 3
82 8 120 11 39 3 90 8 115 10 107 10 217 18 247 19 18 1 33 3 33 6 0 3 24 5
53 5 28 0 56 2 61 4 4 2 31 5 60 6 28 2 83 6 121 10 82 7 124 11 225 20 41 3
95 8 120 10 25 3 79 7 120 10 41 3 91 8 111 10 34 4 134 13 239 20 25 2 45 4
45 5 0 1 25 3 55 5 134 10 175 14 175 15 0 1 20 3 45 4 42 3 149 12 250 21 25
2 74 7 110 10 36 3 88 8 115 11 28 2 77 7 110 9 33 3 92 8 130 11 39 4 89 7
113 8 23 0 42 3 42 6 0 3 33 6 73 8 39 1 90 5 112 7 39 5 76 8 225 21 41 3 91
7 110 9 19 2 71 6 115 10 44 4 96 8 115 10 19 2 72 6 118 10 46 3 97 8 115 11
18 2 64 6 102 9 39 3 93 7 120 9 28 2 82 7 120 10 39 3 93 8 120 11 28 2 79 7
115 10 36 3 81 8 100 10 19 2 71 6 115 10 44 3 105 9 135 11 30 3 75 7 100 9
25 2 77 6 115 9 90 8 150 13 250 22 44 3 94 8 110 9 17 2 36 3 43 4 9 1 12
1016 12 5041 l0 5040 -4600 0 -4600 0 0 -5440z"/>
</g>
</svg>
