<svg width="322" height="121" viewBox="0 0 322 121" fill="none" xmlns="http://www.w3.org/2000/svg">
<path d="M105.435 71.755H109.435V67.755H105.435V71.755ZM87.7647 71.755H83.7647V75.755H87.7647V71.755ZM87.7647 51.45H91.7647V47.45H87.7647V51.45ZM64.0497 51.45V47.45H60.0497V51.45H64.0497ZM64.0497 71.755V75.755H68.0497V71.755H64.0497ZM34.9097 71.755L31.6741 69.4032L27.0573 75.755H34.9097V71.755ZM82.3397 6.49999L85.5753 8.85176L90.192 2.49999H82.3397V6.49999ZM55.9897 6.49999V2.49999H53.9788L52.7793 4.1139L55.9897 6.49999ZM4.83967 75.32L1.62929 72.9339L0.839668 73.9963V75.32H4.83967ZM4.83967 92.215H0.839668V96.215H4.83967V92.215ZM63.2747 92.215H67.2747V88.215H63.2747V92.215ZM63.2747 115H59.2747V119H63.2747V115ZM87.7647 115V119H91.7647V115H87.7647ZM87.7647 92.215V88.215H83.7647V92.215H87.7647ZM105.435 92.215V96.215H109.435V92.215H105.435ZM105.435 67.755H87.7647V75.755H105.435V67.755ZM91.7647 71.755V51.45H83.7647V71.755H91.7647ZM87.7647 47.45H64.0497V55.45H87.7647V47.45ZM60.0497 51.45V71.755H68.0497V51.45H60.0497ZM64.0497 67.755H34.9097V75.755H64.0497V67.755ZM38.1453 74.1068L85.5753 8.85176L79.1041 4.14822L31.6741 69.4032L38.1453 74.1068ZM82.3397 2.49999H55.9897V10.5H82.3397V2.49999ZM52.7793 4.1139L1.62929 72.9339L8.05005 77.7061L59.2001 8.88609L52.7793 4.1139ZM0.839668 75.32V92.215H8.83967V75.32H0.839668ZM4.83967 96.215H63.2747V88.215H4.83967V96.215ZM59.2747 92.215V115H67.2747V92.215H59.2747ZM63.2747 119H87.7647V111H63.2747V119ZM91.7647 115V92.215H83.7647V115H91.7647ZM87.7647 96.215H105.435V88.215H87.7647V96.215ZM109.435 92.215V71.755H101.435V92.215H109.435ZM159.445 120.86C173.922 120.86 186.684 115.346 195.774 104.851C204.823 94.4033 209.945 79.3655 209.945 60.75H201.945C201.945 77.9394 197.225 90.9567 189.727 99.6131C182.271 108.221 171.783 112.86 159.445 112.86V120.86ZM209.945 60.75C209.945 42.1344 204.823 27.0967 195.774 16.6493C186.684 6.15394 173.922 0.639999 159.445 0.639999V8.64C171.783 8.64 182.271 13.2786 189.727 21.8869C197.225 30.5433 201.945 43.5605 201.945 60.75H209.945ZM159.445 0.639999C145.04 0.639999 132.283 6.15715 123.177 16.6458C114.11 27.0897 108.945 42.1266 108.945 60.75H116.945C116.945 43.5684 121.7 30.5503 129.218 21.8904C136.697 13.2753 147.189 8.64 159.445 8.64V0.639999ZM108.945 60.75C108.945 79.3734 114.11 94.4103 123.177 104.854C132.283 115.343 145.04 120.86 159.445 120.86V112.86C147.189 112.86 136.697 108.225 129.218 99.6096C121.7 90.9497 116.945 77.9316 116.945 60.75H108.945ZM159.445 91.625C154.529 91.625 150.541 89.6931 147.594 85.2265C144.489 80.5212 142.365 72.7087 142.365 60.75H134.365C134.365 73.4363 136.581 83.0613 140.916 89.6323C145.409 96.4419 151.961 99.625 159.445 99.625V91.625ZM142.365 60.75C142.365 48.7913 144.489 40.9788 147.594 36.2735C150.541 31.8069 154.529 29.875 159.445 29.875V21.875C151.961 21.875 145.409 25.0581 140.916 31.8677C136.581 38.4387 134.365 48.0637 134.365 60.75H142.365ZM159.445 29.875C164.456 29.875 168.479 31.8215 171.437 36.2815C174.555 40.9829 176.68 48.79 176.68 60.75H184.68C184.68 48.065 182.465 38.4346 178.104 31.8598C173.583 25.0435 166.989 21.875 159.445 21.875V29.875ZM176.68 60.75C176.68 72.71 174.555 80.5171 171.437 85.2185C168.479 89.6785 164.456 91.625 159.445 91.625V99.625C166.989 99.625 173.583 96.4565 178.104 89.6402C182.465 83.0654 184.68 73.4349 184.68 60.75H176.68ZM317.5 71.755H321.5V67.755H317.5V71.755ZM299.83 71.755H295.83V75.755H299.83V71.755ZM299.83 51.45H303.83V47.45H299.83V51.45ZM276.115 51.45V47.45H272.115V51.45H276.115ZM276.115 71.755V75.755H280.115V71.755H276.115ZM246.975 71.755L243.739 69.4032L239.123 75.755H246.975V71.755ZM294.405 6.49999L297.641 8.85176L302.257 2.49999H294.405V6.49999ZM268.055 6.49999V2.49999H266.044L264.845 4.1139L268.055 6.49999ZM216.905 75.32L213.695 72.9339L212.905 73.9963V75.32H216.905ZM216.905 92.215H212.905V96.215H216.905V92.215ZM275.34 92.215H279.34V88.215H275.34V92.215ZM275.34 115H271.34V119H275.34V115ZM299.83 115V119H303.83V115H299.83ZM299.83 92.215V88.215H295.83V92.215H299.83ZM317.5 92.215V96.215H321.5V92.215H317.5ZM317.5 67.755H299.83V75.755H317.5V67.755ZM303.83 71.755V51.45H295.83V71.755H303.83ZM299.83 47.45H276.115V55.45H299.83V47.45ZM272.115 51.45V71.755H280.115V51.45H272.115ZM276.115 67.755H246.975V75.755H276.115V67.755ZM250.211 74.1068L297.641 8.85176L291.169 4.14822L243.739 69.4032L250.211 74.1068ZM294.405 2.49999H268.055V10.5H294.405V2.49999ZM264.845 4.1139L213.695 72.9339L220.115 77.7061L271.265 8.88609L264.845 4.1139ZM212.905 75.32V92.215H220.905V75.32H212.905ZM216.905 96.215H275.34V88.215H216.905V96.215ZM271.34 92.215V115H279.34V92.215H271.34ZM275.34 119H299.83V111H275.34V119ZM303.83 115V92.215H295.83V115H303.83ZM299.83 96.215H317.5V88.215H299.83V96.215ZM321.5 92.215V71.755H313.5V92.215H321.5Z" fill="#FF5C00"/>
</svg>
