<svg width="30" height="34" viewBox="0 0 30 34" fill="none" xmlns="http://www.w3.org/2000/svg">
<path d="M15.2764 21.088C14.0284 21.088 12.9564 21.472 12.2844 22.256V22.24C12.2844 19.696 13.6124 18.384 15.7244 18.384C16.5084 18.384 17.2444 18.528 17.8524 18.928L18.6204 17.36C17.8684 16.88 16.7964 16.64 15.6764 16.64C12.4284 16.64 10.1884 18.752 10.1884 22.592C10.1884 26.192 11.9804 28.16 15.0364 28.16C17.3244 28.16 19.1324 26.752 19.1324 24.528C19.1324 22.432 17.4844 21.088 15.2764 21.088ZM14.9244 26.528C13.4364 26.528 12.6044 25.696 12.6044 24.64C12.6044 23.536 13.5324 22.72 14.8764 22.72C16.2364 22.72 17.1164 23.456 17.1164 24.624C17.1164 25.792 16.2204 26.528 14.9244 26.528Z" fill="#FF5C00"/>
<path d="M25.6667 4.08301H4.08333C2.38046 4.08301 1 5.46346 1 7.16634V28.7497C1 30.4526 2.38046 31.833 4.08333 31.833H25.6667C27.3695 31.833 28.75 30.4526 28.75 28.7497V7.16634C28.75 5.46346 27.3695 4.08301 25.6667 4.08301Z" stroke="#FF5C00" stroke-width="2" stroke-linecap="round" stroke-linejoin="round"/>
<path d="M21.0416 1V7.16667" stroke="#FF5C00" stroke-width="2" stroke-linecap="round" stroke-linejoin="round"/>
<path d="M8.70837 1V7.16667" stroke="#FF5C00" stroke-width="2" stroke-linecap="round" stroke-linejoin="round"/>
<path d="M1 13.333H28.75" stroke="#FF5C00" stroke-width="2" stroke-linecap="round" stroke-linejoin="round"/>
</svg>
