<svg width="35" height="43" viewBox="0 0 35 43" fill="none" xmlns="http://www.w3.org/2000/svg">
<path d="M8.61338 32.9667L7.61005 33.97C7.18005 34.4 7.18005 35.1167 7.61005 35.5467C7.75338 35.8333 8.04005 35.8333 8.32672 35.8333C8.61338 35.8333 8.90005 35.8333 9.18672 35.5467L10.19 34.5433C10.62 34.1133 10.62 33.3967 10.19 32.9667C9.76005 32.5367 9.04338 32.68 8.61338 32.9667ZM6.03338 24.6533H4.60005C4.02672 24.6533 3.45338 25.0833 3.45338 25.8C3.45338 26.5167 3.88338 26.9467 4.60005 26.9467H6.03338C6.60672 26.9467 7.18005 26.5167 7.18005 25.8C7.18005 25.0833 6.60672 24.6533 6.03338 24.6533ZM17.5 15.1933C18.0734 15.1933 18.6467 14.7633 18.6467 14.0467V12.6133C18.6467 12.04 18.2167 11.4667 17.5 11.4667C16.7834 11.4667 16.3534 11.8967 16.3534 12.6133V14.0467C16.3534 14.7633 16.9267 15.1933 17.5 15.1933ZM9.18672 15.7667C8.75672 15.3367 8.04005 15.3367 7.61005 15.7667C7.18005 16.1967 7.18005 16.9133 7.61005 17.3433L8.61338 18.3467C8.75672 18.49 9.04338 18.6333 9.33005 18.6333C9.61672 18.6333 9.90338 18.49 10.0467 18.3467C10.4767 17.9167 10.4767 17.2 10.0467 16.77L9.18672 15.7667ZM22.5167 19.0633L17.7867 23.65C17.07 23.5067 16.3534 23.65 15.78 24.08C14.92 24.94 14.92 26.23 15.78 27.09C16.64 27.95 17.93 27.95 18.79 27.09C19.3634 26.5167 19.5067 25.8 19.3634 25.0833L24.0934 20.4967C24.5234 20.0667 24.5234 19.35 24.0934 18.92C23.6634 18.6333 22.9467 18.6333 22.5167 19.0633ZM18.6467 8.45667V7.59667C20.2234 7.16667 21.5134 5.59 21.5134 3.87C21.37 1.86333 19.65 0 17.5 0C15.35 0 13.63 1.72 13.63 3.87C13.63 5.59 14.7767 7.16667 16.4967 7.59667V8.45667C7.46672 9.03 0.300049 16.4833 0.300049 25.5133C0.300049 34.9733 8.04005 42.7133 17.5 42.7133C26.9601 42.7133 34.7001 34.9733 34.7001 25.5133C34.7001 16.4833 27.5334 9.03 18.6467 8.45667ZM15.78 4.01333C15.78 3.01 16.4967 2.29333 17.5 2.29333C18.5034 2.29333 19.2201 3.01 19.2201 4.01333C19.2201 4.87333 18.5034 5.73333 17.5 5.73333C16.4967 5.73333 15.78 4.87333 15.78 4.01333ZM17.5 40.5633C9.18672 40.5633 2.45005 33.8267 2.45005 25.5133C2.45005 17.2 9.18672 10.6067 17.5 10.6067C25.8134 10.6067 32.55 17.3433 32.55 25.6567C32.55 33.97 25.8134 40.5633 17.5 40.5633ZM17.5 36.12C16.9267 36.12 16.3534 36.55 16.3534 37.2667V38.7C16.3534 39.2733 16.7834 39.8467 17.5 39.8467C18.2167 39.8467 18.6467 39.4167 18.6467 38.7V37.2667C18.6467 36.55 18.0734 36.12 17.5 36.12ZM30.4001 24.6533H28.9667C28.3934 24.6533 27.8201 25.0833 27.8201 25.8C27.8201 26.5167 28.25 26.9467 28.9667 26.9467H30.4001C30.9734 26.9467 31.5467 26.5167 31.5467 25.8C31.5467 25.0833 30.9734 24.6533 30.4001 24.6533ZM25.8134 15.7667L24.8101 16.77C24.3801 17.2 24.3801 17.9167 24.8101 18.3467C24.9534 18.49 25.2401 18.6333 25.5267 18.6333C25.8134 18.6333 26.1 18.49 26.2434 18.3467L27.2467 17.3433C27.6767 16.9133 27.6767 16.1967 27.2467 15.7667C26.96 15.3367 26.2434 15.3367 25.8134 15.7667ZM26.3867 32.9667C25.9567 32.5367 25.2401 32.5367 24.8101 32.9667C24.3801 33.3967 24.3801 34.1133 24.8101 34.5433L25.8134 35.5467C26.1 35.8333 26.3867 35.8333 26.6734 35.8333C26.96 35.8333 27.2467 35.69 27.39 35.5467C27.82 35.1167 27.82 34.4 27.39 33.97L26.3867 32.9667Z" fill="#FF5C00"/>
</svg>
