<svg width="33" height="33" viewBox="0 0 33 33" fill="none" xmlns="http://www.w3.org/2000/svg">
<path d="M27.4577 8.53857C27.4577 8.53857 8.25924 8.53857 4.77967 8.53857C2.45442 8.53857 1 10.8064 1 12.3182V28.4832C1 30.4108 2.56176 31.9726 4.4894 31.9726H27.748C29.6749 31.9726 31.2374 30.4108 31.2374 28.4832V12.2018C31.2374 10.2765 29.3846 8.53857 27.4577 8.53857Z" stroke="#FF5C00" stroke-width="2" stroke-miterlimit="10" stroke-linecap="round" stroke-linejoin="round"/>
<path d="M25.1899 6.27087V3.74454C25.1899 1.22652 24.6464 0.500064 21.5221 1.32403C19.2271 1.92954 5.79792 5.65252 5.79792 5.65252C1.6622 7.21125 1.03099 8.53792 1.03099 11.5609L1 13.4167" stroke="#FF5C00" stroke-width="2" stroke-miterlimit="10" stroke-linejoin="round"/>
<path d="M26.3253 22.1454C25.2814 22.1454 24.434 21.3003 24.434 20.2563C24.434 19.2124 25.2814 18.3657 26.3253 18.3657C27.3663 18.3657 28.2137 19.2124 28.2137 20.2563C28.2137 21.3003 27.3663 22.1454 26.3253 22.1454Z" fill="#FF5C00"/>
</svg>
