<svg width="26" height="40" viewBox="0 0 26 40" fill="none" xmlns="http://www.w3.org/2000/svg">
<path fill-rule="evenodd" clip-rule="evenodd" d="M22.5333 39.9331H3.46667C1.5522 39.9331 0 38.3809 0 36.4664V10.4664C0 8.55194 1.5522 6.99974 3.46667 6.99974H9.53333V3.53307C9.53333 1.61861 11.0855 0.0664062 13 0.0664062C14.9145 0.0664062 16.4667 1.61861 16.4667 3.53307V6.99974H22.5333C24.4478 6.99974 26 8.55194 26 10.4664V36.4664C26 38.3809 24.4478 39.9331 22.5333 39.9331ZM14.7333 3.53307C14.7333 2.57627 13.9568 1.79974 13 1.79974C12.0432 1.79974 11.2667 2.57627 11.2667 3.53307V8.73307C11.2667 9.68987 12.0432 10.4664 13 10.4664C13.9568 10.4664 14.7333 9.68987 14.7333 8.73307V3.53307ZM24.2667 10.4664C24.2667 9.50961 23.4901 8.73307 22.5333 8.73307H16.4667C16.4667 10.6475 14.9145 12.1997 13 12.1997C11.0855 12.1997 9.53333 10.6475 9.53333 8.73307H3.46667C2.50987 8.73307 1.73333 9.50961 1.73333 10.4664V31.2664H5.02407C5.22427 30.7559 5.5926 29.9239 6.0294 29.3251C6.05107 29.3129 6.76433 27.8179 10.361 27.7737C10.3662 27.7555 10.3697 26.8707 10.3801 26.8837C10.1027 26.7086 9.74133 26.4365 9.4692 26.1765C9.2482 26.0413 8.463 25.2847 8.2108 23.9379C8.1354 23.4681 7.78787 21.2521 7.78787 20.3273C7.78787 17.5791 8.8842 14.7971 12.9471 14.7971C12.9653 14.7971 13.0338 14.7971 13.052 14.7971C17.1149 14.7971 18.2113 17.5791 18.2113 20.3273C18.2113 21.2521 17.8637 23.4681 17.7883 23.9379C17.5361 25.2847 16.7518 26.0413 16.5299 26.1765C16.2587 26.4373 15.8973 26.7086 15.6191 26.8837C15.6303 26.8707 15.6347 27.7564 15.6381 27.7737C19.2357 27.8179 19.9489 29.3129 19.9697 29.3251C20.4065 29.9239 20.7749 30.7559 20.9751 31.2664H24.2667V10.4664ZM13.8788 26.4893C13.8779 26.4919 13.8779 26.4928 13.8779 26.4928C13.8753 26.4928 13.8632 25.8159 13.8632 25.8159C13.8632 25.8159 14.8737 25.2951 15.6234 24.6217C16.0628 24.2603 16.2656 23.4413 16.2656 23.4413C16.3843 22.7237 16.4719 20.9479 16.4719 20.232C16.4719 18.4449 15.5766 16.5227 12.9991 16.5227C12.9991 16.5227 12.9991 16.5175 12.9991 16.5166V16.5227C10.4217 16.5227 9.5264 18.4458 9.5264 20.232C9.5264 20.9479 9.61567 22.7237 9.73267 23.4413C9.73267 23.4413 9.93547 24.2603 10.3749 24.6217C11.1245 25.2951 12.1351 25.8159 12.1351 25.8159C12.1351 25.8159 12.1229 26.4928 12.1195 26.4928C12.1195 26.4928 12.1195 26.4919 12.1195 26.4893C12.1195 26.4893 12.1446 27.4825 12.1446 27.7772C12.1446 28.9585 10.9616 29.527 10.218 29.527C10.2163 29.527 10.2163 29.527 10.2154 29.527C7.96813 29.6258 7.43773 30.3729 7.4334 30.3798C7.29647 30.5991 7.10667 30.8175 6.9316 31.2664H19.0693C18.8933 30.8175 18.7035 30.5991 18.5649 30.3807C18.5597 30.3729 18.0284 29.6267 15.782 29.5279C15.7811 29.5279 15.7811 29.5279 15.7803 29.5279C15.0367 29.5279 13.8528 28.9602 13.8528 27.7781C13.8528 27.4825 13.8788 26.4893 13.8788 26.4893ZM24.2667 32.9997H1.73333V36.4664C1.73333 37.4232 2.50987 38.1997 3.46667 38.1997H22.5333C23.4901 38.1997 24.2667 37.4232 24.2667 36.4664V32.9997ZM19.0667 36.4664H16.4667C15.9874 36.4664 15.6 36.079 15.6 35.5997C15.6 35.1205 15.9874 34.7331 16.4667 34.7331H19.0667C19.5459 34.7331 19.9333 35.1205 19.9333 35.5997C19.9333 36.079 19.5459 36.4664 19.0667 36.4664ZM12.1333 36.4664H6.93333C6.45407 36.4664 6.06667 36.079 6.06667 35.5997C6.06667 35.1205 6.45407 34.7331 6.93333 34.7331H12.1333C12.6126 34.7331 13 35.1205 13 35.5997C13 36.079 12.6126 36.4664 12.1333 36.4664ZM12.1333 3.53307H13.8667V5.26641H12.1333V3.53307Z" fill="white"/>
</svg>
