<svg width="25" height="25" viewBox="0 0 25 25" fill="none" xmlns="http://www.w3.org/2000/svg">
<path d="M12.5757 0.618C5.29566 0.618 0.303664 5.532 0.303664 12.396C0.303664 19.286 5.24366 24.252 12.4717 24.252C14.3177 24.252 16.4757 23.836 18.0617 23.03L17.4897 21.366C15.9557 22.172 14.0577 22.51 12.4717 22.51C6.30966 22.51 2.20166 18.35 2.20166 12.396C2.20166 6.494 6.36166 2.334 12.5757 2.334C18.7117 2.334 22.9237 6.234 22.9237 12.058C22.9237 15.308 22.0397 17.18 20.5057 17.18C19.6997 17.18 19.0237 16.686 19.0237 15.308V5.948H16.7617V8.054C15.6957 6.598 14.0057 5.844 12.0037 5.844C8.31166 5.844 5.63366 8.6 5.63366 12.474C5.63366 16.348 8.31166 19.156 12.0037 19.156C14.1877 19.156 15.9037 18.298 16.9437 16.686C17.2557 18.272 18.3997 19.156 20.0637 19.156C23.0017 19.156 24.6917 16.452 24.6917 12.032C24.6917 5.298 19.6997 0.618 12.5757 0.618ZM12.3677 17.128C9.76766 17.128 7.94766 15.282 7.94766 12.474C7.94766 9.64 9.76766 7.846 12.3677 7.846C14.8897 7.846 16.8137 9.588 16.8137 12.474C16.8137 15.36 14.8897 17.128 12.3677 17.128Z" fill="white"/>
</svg>
