<svg width="28" height="28" viewBox="0 0 28 28" fill="none" xmlns="http://www.w3.org/2000/svg">
<path d="M14 25C13.77 25 13.539 24.921 13.352 24.762C13.11 24.556 7.41 19.662 5.032 14.324C4.807 13.82 5.034 13.228 5.539 13.004C6.042 12.78 6.634 13.006 6.859 13.511C8.598 17.416 12.436 21.21 13.983 22.641C16.713 19.991 22 14.069 22 10.23C22 5.692 18.411 2 14 2C9.589 2 6 5.692 6 10.23C6 10.782 5.552 11.23 5 11.23C4.448 11.23 4 10.782 4 10.23C4 4.589 8.486 0 14 0C19.514 0 24 4.589 24 10.23C24 16.142 15.056 24.389 14.675 24.738C14.484 24.912 14.242 25 14 25Z" fill="white"/>
<path d="M14 14C11.794 14 10 12.206 10 10C10 7.794 11.794 6 14 6C16.206 6 18 7.794 18 10C18 12.206 16.206 14 14 14ZM14 8C12.897 8 12 8.897 12 10C12 11.103 12.897 12 14 12C15.103 12 16 11.103 16 10C16 8.897 15.103 8 14 8Z" fill="white"/>
<path d="M27 28.0002H1C0.644004 28.0002 0.314004 27.8112 0.135004 27.5022C-0.0439958 27.1932 -0.0449958 26.8142 0.132004 26.5042L4.132 19.5042C4.406 19.0252 5.017 18.8572 5.496 19.1322C5.975 19.4062 6.142 20.0172 5.868 20.4962L2.723 26.0002H25.276L22.131 20.4962C21.857 20.0172 22.024 19.4062 22.503 19.1322C22.982 18.8562 23.593 19.0252 23.867 19.5042L27.867 26.5042C28.044 26.8142 28.043 27.1932 27.864 27.5022C27.686 27.8112 27.356 28.0002 27 28.0002Z" fill="white"/>
</svg>
