<svg width="25" height="25" viewBox="0 0 25 25" fill="none" xmlns="http://www.w3.org/2000/svg">
<path d="M15.2462 5.396C16.3217 5.60543 17.3101 6.13041 18.0849 6.90376C18.8598 7.6771 19.3857 8.66362 19.5956 9.73705M15.2462 1C17.4807 1.24775 19.5643 2.24646 21.155 3.83213C22.7457 5.4178 23.749 7.4962 24 9.72606M22.8989 18.4961V21.7931C22.9001 22.0992 22.8373 22.4021 22.7145 22.6826C22.5916 22.963 22.4114 23.2147 22.1855 23.4216C21.9595 23.6286 21.6927 23.7861 21.4022 23.8842C21.1117 23.9822 20.8039 24.0186 20.4985 23.9911C17.1102 23.6236 13.8555 22.468 10.996 20.6172C8.3355 18.9298 6.07989 16.6785 4.38933 14.0232C2.52844 11.1561 1.37037 7.89182 1.00894 4.49482C0.981421 4.19091 1.01761 3.88461 1.11519 3.59543C1.21278 3.30624 1.36963 3.0405 1.57575 2.81513C1.78187 2.58976 2.03275 2.4097 2.31241 2.2864C2.59208 2.16311 2.8944 2.09929 3.20014 2.099H6.50345C7.03782 2.09375 7.55588 2.28262 7.96105 2.6304C8.36622 2.97819 8.63087 3.46115 8.70566 3.98928C8.84508 5.04439 9.10365 6.08038 9.47643 7.07747C9.62458 7.47083 9.65664 7.89833 9.56882 8.30932C9.481 8.72031 9.27698 9.09755 8.98093 9.39636L7.58253 10.7921C9.15001 13.5435 11.4325 15.8216 14.1892 17.3861L15.5876 15.9904C15.8869 15.6949 16.2649 15.4912 16.6767 15.4036C17.0885 15.3159 17.5168 15.3479 17.9109 15.4958C18.9099 15.8679 19.9479 16.126 21.005 16.2651C21.5399 16.3404 22.0284 16.6093 22.3776 17.0207C22.7268 17.432 22.9123 17.9571 22.8989 18.4961Z" stroke="white" stroke-width="2" stroke-linecap="round" stroke-linejoin="round"/>
</svg>
