<svg width="14" height="17" viewBox="0 0 14 17" fill="none" xmlns="http://www.w3.org/2000/svg">
<path d="M11.5323 8.13266C11.4749 8.07553 11.4069 8.0303 11.3321 7.99953C11.2572 7.96877 11.1771 7.95309 11.0963 7.95337C11.0154 7.95366 10.9354 7.96991 10.8608 8.0012C10.7862 8.03249 10.7185 8.07821 10.6615 8.13574C10.6045 8.19328 10.5594 8.2615 10.5288 8.33651C10.4981 8.41153 10.4824 8.49186 10.4827 8.57294C10.483 8.65402 10.4992 8.73424 10.5304 8.80904C10.5616 8.88383 10.6072 8.95173 10.6646 9.00886C11.1853 9.52545 11.5987 10.1405 11.8807 10.8183C12.1627 11.4962 12.3078 12.2234 12.3077 12.9579C12.3077 13.7107 10.1477 14.8091 6.76923 14.8091C3.39079 14.8091 1.2308 13.7107 1.2308 12.9579C1.22982 12.2283 1.37226 11.5056 1.64996 10.8312C1.92766 10.1567 2.33519 9.5438 2.84925 9.02737C2.96387 8.91176 3.0282 8.75537 3.0282 8.59235C3.0282 8.42934 2.96387 8.27295 2.84925 8.15734C2.73395 8.04241 2.57799 7.97791 2.41541 7.97791C2.25284 7.97791 2.09687 8.04241 1.98157 8.15734C1.35087 8.78621 0.850947 9.53437 0.510799 10.3584C0.170651 11.1825 -0.00295821 12.0661 3.81339e-05 12.9579C3.81339e-05 14.9633 3.48925 16.0431 6.76923 16.0431C10.0492 16.0431 13.5384 14.9633 13.5384 12.9579C13.5408 12.0603 13.3646 11.1712 13.0201 10.3427C12.6756 9.51413 12.1698 8.76281 11.5323 8.13266Z" fill="#1882FF"/>
<path d="M6.76923 8.6386C7.6212 8.6386 8.45405 8.38528 9.16244 7.91067C9.87084 7.43606 10.423 6.76148 10.749 5.97223C11.075 5.18298 11.1603 4.31451 10.9941 3.47665C10.8279 2.63879 10.4177 1.86916 9.81521 1.2651C9.21277 0.661031 8.44522 0.249657 7.60961 0.0829961C6.774 -0.0836651 5.90787 0.00187148 5.12075 0.328789C4.33362 0.655707 3.66086 1.20932 3.18752 1.91963C2.71419 2.62993 2.46155 3.46503 2.46155 4.3193C2.46155 5.46485 2.91539 6.56348 3.72324 7.37351C4.53108 8.18353 5.62676 8.6386 6.76923 8.6386ZM6.76923 1.23409C7.37778 1.23409 7.97267 1.41503 8.47867 1.75404C8.98466 2.09305 9.37904 2.57489 9.61192 3.13864C9.84481 3.70239 9.90574 4.32272 9.78702 4.9212C9.66829 5.51967 9.37524 6.0694 8.94493 6.50088C8.51462 6.93235 7.96636 7.22619 7.3695 7.34524C6.77264 7.46428 6.15397 7.40318 5.59174 7.16967C5.02951 6.93616 4.54896 6.54072 4.21087 6.03336C3.87277 5.52599 3.69231 4.9295 3.69231 4.3193C3.69231 3.50105 4.01649 2.71632 4.59352 2.13773C5.17055 1.55914 5.95318 1.23409 6.76923 1.23409Z" fill="#1882FF"/>
</svg>
