<svg width="32" height="32" viewBox="0 0 32 32" fill="none" xmlns="http://www.w3.org/2000/svg">
<path d="M30.3476 29.7081H3.23142L12.8747 20.0518L17.1027 24.2797C17.166 24.3422 17.2415 24.391 17.3245 24.4232C17.4833 24.4885 17.6615 24.4885 17.8204 24.4232C17.9033 24.391 17.9788 24.3422 18.0422 24.2797L29.4211 12.8747V17.0896C29.4211 17.2626 29.4898 17.4286 29.6122 17.551C29.7345 17.6733 29.9005 17.7421 30.0735 17.7421C30.2466 17.7421 30.4125 17.6733 30.5349 17.551C30.6572 17.4286 30.726 17.2626 30.726 17.0896V11.2958C30.726 11.1227 30.6572 10.9568 30.5349 10.8344C30.4125 10.7121 30.2466 10.6433 30.0735 10.6433H24.2927C24.1197 10.6433 23.9538 10.7121 23.8314 10.8344C23.709 10.9568 23.6403 11.1227 23.6403 11.2958C23.6403 11.4688 23.709 11.6348 23.8314 11.7571C23.9538 11.8795 24.1197 11.9482 24.2927 11.9482H28.5076L17.5594 22.8965L13.3315 18.6686C13.2708 18.6074 13.1986 18.5589 13.1191 18.5257C13.0396 18.4926 12.9543 18.4756 12.8682 18.4756C12.7821 18.4756 12.6968 18.4926 12.6173 18.5257C12.5378 18.5589 12.4656 18.6074 12.405 18.6686L2.30493 28.7816V1.65246C2.30493 1.47942 2.23619 1.31346 2.11383 1.1911C1.99147 1.06874 1.82551 1 1.65247 1C1.47943 1 1.31347 1.06874 1.19111 1.1911C1.06875 1.31346 1.00001 1.47942 1.00001 1.65246V30.3606C0.998989 30.5308 1.06455 30.6947 1.1827 30.8173C1.24376 30.8732 1.31452 30.9174 1.39149 30.9478C1.47313 30.9871 1.56194 31.0093 1.65247 31.0131H30.3606C30.5336 31.0131 30.6996 30.9443 30.822 30.8219C30.9443 30.6996 31.0131 30.5336 31.0131 30.3606C31.0131 30.1875 30.9443 30.0216 30.822 29.8992C30.6996 29.7769 30.5336 29.7081 30.3606 29.7081H30.3476Z" fill="#FF5C00" stroke="#FF5C00" stroke-width="0.8"/>
</svg>
