<svg width="43" height="26" viewBox="0 0 43 26" fill="none" xmlns="http://www.w3.org/2000/svg">
<path d="M13.5 25C20.4036 25 26 19.6274 26 13C26 6.37258 20.4036 1 13.5 1C6.59644 1 1 6.37258 1 13C1 19.6274 6.59644 25 13.5 25Z" stroke="#FF5C00" stroke-width="2" stroke-linecap="round" stroke-linejoin="round"/>
<path d="M17 1.65001C18.9325 1.02978 20.9954 0.849931 23.0172 1.12543C25.039 1.40094 26.9612 2.12383 28.624 3.23398C30.2868 4.34413 31.6421 5.80946 32.5771 7.50809C33.5122 9.20672 34 11.0896 34 13C34 14.9104 33.5122 16.7933 32.5771 18.4919C31.6421 20.1905 30.2868 21.6559 28.624 22.766C26.9612 23.8762 25.039 24.5991 23.0172 24.8746C20.9954 25.1501 18.9325 24.9702 17 24.35" stroke="#FF5C00" stroke-width="2" stroke-linecap="round" stroke-linejoin="round"/>
<path d="M26 1.65001C27.8188 1.02978 29.7604 0.849931 31.6632 1.12543C33.5661 1.40094 35.3752 2.12383 36.9402 3.23398C38.5052 4.34413 39.7808 5.80946 40.6608 7.50809C41.5409 9.20672 42 11.0896 42 13C42 14.9104 41.5409 16.7933 40.6608 18.4919C39.7808 20.1905 38.5052 21.6559 36.9402 22.766C35.3752 23.8762 33.5661 24.5991 31.6632 24.8746C29.7604 25.1501 27.8188 24.9702 26 24.35" stroke="#FF5C00" stroke-width="2" stroke-linecap="round" stroke-linejoin="round"/>
<path d="M10 15.5C10 16.8781 11.3437 18 13.0008 18C14.6579 18 16 16.8828 16 15.5C16 14.1172 14.8515 13.3031 13.0008 13C11.3273 12.6875 10 11.8828 10 10.5C10 9.11719 11.3437 8 13.0008 8C14.6579 8 16 9.11719 16 10.5" stroke="#FF5C00" stroke-width="2" stroke-linecap="round" stroke-linejoin="round"/>
<path d="M13 20V18" stroke="#FF5C00" stroke-width="2" stroke-linecap="round" stroke-linejoin="round"/>
<path d="M13 8V6" stroke="#FF5C00" stroke-width="2" stroke-linecap="round" stroke-linejoin="round"/>
</svg>
