<svg width="201" height="144" viewBox="0 0 201 144" fill="none" xmlns="http://www.w3.org/2000/svg">
<path d="M53.6579 91.3086V84.4236L56.4629 84.1686C58.1063 83.9986 58.9279 83.2053 58.9279 81.7886V42.2636L54.0829 42.0086V34.7836H95.1379V48.8936L86.4679 49.4886V46.0886C86.4679 45.1253 86.3263 44.4453 86.0429 44.0486C85.7596 43.6519 85.0796 43.4536 84.0029 43.4536H69.2979V58.4986H90.2079V67.1686H69.2979V83.8286L76.8629 84.0836V91.3086H53.6579ZM141.205 44.6436L129.05 61.0486L143.925 83.4886L149.28 83.8286V91.3086H125.65V84.3386L128.2 84.0836C129.277 83.9703 130.014 83.6019 130.41 82.9786C130.807 82.2986 130.75 81.5903 130.24 80.8536L122.59 69.0386L112.815 83.8286L116.895 84.0836V91.3086H97.3453V84.4236L99.9803 84.1686C101.057 83.9986 102.134 83.0919 103.21 81.4486L116.98 61.7286L104.06 42.6886L99.3853 42.2636V34.7836H121.91V41.7536L119.785 42.0086C118.595 42.1219 117.83 42.5186 117.49 43.1986C117.207 43.8786 117.349 44.6436 117.915 45.4936L123.61 54.4186L131.855 42.2636L127.605 42.0086V34.7836H147.07V41.6686L144.435 41.9236C143.359 42.0936 142.282 43.0003 141.205 44.6436Z" fill="white"/>
<path d="M55.309 102.824L58.539 111.412H58.577L61.826 102.824H65.588V104.363L64.961 104.42C64.581 104.458 64.3973 104.68 64.41 105.085L64.885 113.787L66.063 113.844V115.459H61.484V113.92L62.168 113.863C62.51 113.838 62.6746 113.673 62.662 113.369L62.301 106.662H62.263L59.337 114.243H57.532L54.644 106.738H54.606L54.226 113.787L55.461 113.844V115.459H50.977V113.92L51.661 113.863C51.9523 113.838 52.1106 113.667 52.136 113.35L52.649 104.515L51.49 104.439V102.824H55.309ZM72.9977 102.596C74.505 102.596 75.7653 103.128 76.7787 104.192C77.792 105.256 78.2987 106.884 78.2987 109.075C78.2987 111.254 77.792 112.907 76.7787 114.034C75.778 115.149 74.4163 115.706 72.6937 115.706C70.9837 115.706 69.641 115.149 68.6657 114.034C67.6903 112.919 67.2027 111.298 67.2027 109.17C67.2027 108.005 67.3737 106.985 67.7157 106.111C68.0577 105.224 68.5073 104.54 69.0647 104.059C70.192 103.084 71.503 102.596 72.9977 102.596ZM69.5777 109.075C69.5777 112.216 70.667 113.787 72.8457 113.787C74.011 113.787 74.828 113.306 75.2967 112.343C75.7273 111.494 75.9427 110.456 75.9427 109.227C75.9427 108.125 75.7527 107.112 75.3727 106.187C75.1573 105.68 74.828 105.281 74.3847 104.99C73.954 104.699 73.3903 104.553 72.6937 104.553C71.997 104.553 71.3953 104.781 70.8887 105.237C70.3947 105.693 70.0527 106.244 69.8627 106.89C69.6727 107.536 69.5777 108.264 69.5777 109.075ZM79.6679 115.459V113.92L80.3519 113.863C80.6812 113.838 80.8459 113.66 80.8459 113.331V104.496L79.7629 104.439V102.824H83.1829L88.5599 111.545H88.5979V104.496L87.3439 104.439V102.824H91.9799V104.363L91.2959 104.42C90.9919 104.445 90.8399 104.642 90.8399 105.009V115.459H88.6169L83.1259 106.605H83.0879V113.787L84.3229 113.844V115.459H79.6679ZM102.127 115.459H93.1023V113.92L93.7293 113.863C94.0967 113.825 94.2803 113.648 94.2803 113.331V104.496L93.1973 104.439V102.824H101.899V105.978L99.9613 106.111V105.351C99.9613 105.136 99.9297 104.984 99.8663 104.895C99.803 104.806 99.651 104.762 99.4103 104.762H96.5983V108.011H100.987V109.949H96.5983V113.502H99.6573C99.8853 113.502 100.031 113.458 100.094 113.369C100.158 113.268 100.189 113.109 100.189 112.894V111.944L102.127 112.077V115.459ZM107.102 113.331V110.633L103.872 104.496L102.979 104.439V102.824H107.615V104.363L107.045 104.42C106.842 104.433 106.709 104.509 106.646 104.648C106.595 104.787 106.621 104.958 106.722 105.161L108.337 108.467H108.413L110.484 104.515L109.534 104.439V102.824H113.619V104.363L113.049 104.42C112.808 104.445 112.593 104.635 112.403 104.99L109.42 110.633V113.787L110.902 113.844V115.459H105.544V113.92L106.551 113.863C106.918 113.838 107.102 113.66 107.102 113.331ZM118.132 115.459V113.92L118.759 113.863C119.126 113.825 119.31 113.648 119.31 113.331V104.496L118.227 104.439V102.824H123.661C125.079 102.824 126.181 103.16 126.967 103.831C127.765 104.49 128.164 105.484 128.164 106.814C128.164 108.144 127.714 109.183 126.815 109.93C125.915 110.665 124.725 111.032 123.243 111.032H121.628V113.787L123.452 113.844V115.459H118.132ZM121.628 109.189H122.996C124.845 109.189 125.77 108.435 125.77 106.928C125.77 106.016 125.529 105.414 125.048 105.123C124.579 104.819 123.825 104.667 122.787 104.667H121.628V109.189ZM129.339 115.459V113.92L129.966 113.863C130.333 113.825 130.517 113.648 130.517 113.331V104.496L129.434 104.439V102.824H134.621C136.09 102.824 137.217 103.096 138.003 103.641C138.788 104.186 139.181 105.079 139.181 106.32C139.181 107.181 138.953 107.891 138.497 108.448C138.053 109.005 137.521 109.411 136.901 109.664C137.357 109.829 137.718 110.215 137.984 110.823L139.352 113.806L140.435 113.844V115.459H135.742V113.92L136.293 113.863C136.584 113.825 136.73 113.711 136.73 113.521C136.73 113.445 136.704 113.356 136.654 113.255L135.761 111.355C135.621 111.038 135.463 110.817 135.286 110.69C135.121 110.551 134.88 110.481 134.564 110.481H132.835V113.787L134.07 113.844V115.459H129.339ZM132.835 108.676H134.488C136.046 108.676 136.825 107.979 136.825 106.586C136.825 105.788 136.616 105.269 136.198 105.028C135.792 104.787 135.134 104.667 134.222 104.667H132.835V108.676ZM146.808 102.596C148.316 102.596 149.576 103.128 150.589 104.192C151.603 105.256 152.109 106.884 152.109 109.075C152.109 111.254 151.603 112.907 150.589 114.034C149.589 115.149 148.227 115.706 146.504 115.706C144.794 115.706 143.452 115.149 142.476 114.034C141.501 112.919 141.013 111.298 141.013 109.17C141.013 108.005 141.184 106.985 141.526 106.111C141.868 105.224 142.318 104.54 142.875 104.059C144.003 103.084 145.314 102.596 146.808 102.596ZM143.388 109.075C143.388 112.216 144.478 113.787 146.656 113.787C147.822 113.787 148.639 113.306 149.107 112.343C149.538 111.494 149.753 110.456 149.753 109.227C149.753 108.125 149.563 107.112 149.183 106.187C148.968 105.68 148.639 105.281 148.195 104.99C147.765 104.699 147.201 104.553 146.504 104.553C145.808 104.553 145.206 104.781 144.699 105.237C144.205 105.693 143.863 106.244 143.673 106.89C143.483 107.536 143.388 108.264 143.388 109.075Z" fill="white"/>
</svg>
