<svg width="115" height="136" viewBox="0 0 115 136" fill="none" xmlns="http://www.w3.org/2000/svg">
<path d="M0 0H115V126L0 136V0Z" fill="#FF5C00"/>
<path d="M19.38 75.5V69.83L21.69 69.62C23.0433 69.48 23.72 68.8267 23.72 67.66V35.11L19.73 34.9V28.95H53.54V40.57L46.4 41.06V38.26C46.4 37.4667 46.2833 36.9067 46.05 36.58C45.8167 36.2533 45.2567 36.09 44.37 36.09H32.26V48.48H49.48V55.62H32.26V69.34L38.49 69.55V75.5H19.38ZM91.4778 37.07L81.4678 50.58L93.7178 69.06L98.1278 69.34V75.5H78.6678V69.76L80.7678 69.55C81.6545 69.4567 82.2611 69.1533 82.5878 68.64C82.9145 68.08 82.8678 67.4967 82.4478 66.89L76.1478 57.16L68.0978 69.34L71.4578 69.55V75.5H55.3578V69.83L57.5278 69.62C58.4145 69.48 59.3011 68.7333 60.1878 67.38L71.5278 51.14L60.8878 35.46L57.0378 35.11V28.95H75.5878V34.69L73.8378 34.9C72.8578 34.9933 72.2278 35.32 71.9478 35.88C71.7145 36.44 71.8311 37.07 72.2978 37.77L76.9878 45.12L83.7778 35.11L80.2778 34.9V28.95H96.3078V34.62L94.1378 34.83C93.2511 34.97 92.3645 35.7167 91.4778 37.07Z" fill="white"/>
<path d="M22.72 88.525L25.27 95.305H25.3L27.865 88.525H30.835V89.74L30.34 89.785C30.04 89.815 29.895 89.99 29.905 90.31L30.28 97.18L31.21 97.225V98.5H27.595V97.285L28.135 97.24C28.405 97.22 28.535 97.09 28.525 96.85L28.24 91.555H28.21L25.9 97.54H24.475L22.195 91.615H22.165L21.865 97.18L22.84 97.225V98.5H19.3V97.285L19.84 97.24C20.07 97.22 20.195 97.085 20.215 96.835L20.62 89.86L19.705 89.8V88.525H22.72ZM36.6848 88.345C37.8748 88.345 38.8698 88.765 39.6698 89.605C40.4698 90.445 40.8698 91.73 40.8698 93.46C40.8698 95.18 40.4698 96.485 39.6698 97.375C38.8798 98.255 37.8048 98.695 36.4448 98.695C35.0948 98.695 34.0348 98.255 33.2648 97.375C32.4948 96.495 32.1098 95.215 32.1098 93.535C32.1098 92.615 32.2448 91.81 32.5148 91.12C32.7848 90.42 33.1398 89.88 33.5798 89.5C34.4698 88.73 35.5048 88.345 36.6848 88.345ZM33.9848 93.46C33.9848 95.94 34.8448 97.18 36.5648 97.18C37.4848 97.18 38.1298 96.8 38.4998 96.04C38.8398 95.37 39.0098 94.55 39.0098 93.58C39.0098 92.71 38.8598 91.91 38.5598 91.18C38.3898 90.78 38.1298 90.465 37.7798 90.235C37.4398 90.005 36.9948 89.89 36.4448 89.89C35.8948 89.89 35.4198 90.07 35.0198 90.43C34.6298 90.79 34.3598 91.225 34.2098 91.735C34.0598 92.245 33.9848 92.82 33.9848 93.46ZM41.9507 98.5V97.285L42.4907 97.24C42.7507 97.22 42.8807 97.08 42.8807 96.82V89.845L42.0257 89.8V88.525H44.7257L48.9707 95.41H49.0007V89.845L48.0107 89.8V88.525H51.6707V89.74L51.1307 89.785C50.8907 89.805 50.7707 89.96 50.7707 90.25V98.5H49.0157L44.6807 91.51H44.6507V97.18L45.6257 97.225V98.5H41.9507ZM59.6819 98.5H52.5569V97.285L53.0519 97.24C53.3419 97.21 53.4869 97.07 53.4869 96.82V89.845L52.6319 89.8V88.525H59.5019V91.015L57.9719 91.12V90.52C57.9719 90.35 57.9469 90.23 57.8969 90.16C57.8469 90.09 57.7269 90.055 57.5369 90.055H55.3169V92.62H58.7819V94.15H55.3169V96.955H57.7319C57.9119 96.955 58.0269 96.92 58.0769 96.85C58.1269 96.77 58.1519 96.645 58.1519 96.475V95.725L59.6819 95.83V98.5ZM63.6093 96.82V94.69L61.0593 89.845L60.3543 89.8V88.525H64.0143V89.74L63.5643 89.785C63.4043 89.795 63.2993 89.855 63.2493 89.965C63.2093 90.075 63.2293 90.21 63.3093 90.37L64.5843 92.98H64.6443L66.2793 89.86L65.5293 89.8V88.525H68.7543V89.74L68.3043 89.785C68.1143 89.805 67.9443 89.955 67.7943 90.235L65.4393 94.69V97.18L66.6093 97.225V98.5H62.3793V97.285L63.1743 97.24C63.4643 97.22 63.6093 97.08 63.6093 96.82ZM72.3169 98.5V97.285L72.8119 97.24C73.1019 97.21 73.2469 97.07 73.2469 96.82V89.845L72.3919 89.8V88.525H76.6819C77.8019 88.525 78.6719 88.79 79.2919 89.32C79.9219 89.84 80.2369 90.625 80.2369 91.675C80.2369 92.725 79.8819 93.545 79.1719 94.135C78.4619 94.715 77.5219 95.005 76.3519 95.005H75.0769V97.18L76.5169 97.225V98.5H72.3169ZM75.0769 93.55H76.1569C77.6169 93.55 78.3469 92.955 78.3469 91.765C78.3469 91.045 78.1569 90.57 77.7769 90.34C77.4069 90.1 76.8119 89.98 75.9919 89.98H75.0769V93.55ZM81.1646 98.5V97.285L81.6596 97.24C81.9496 97.21 82.0946 97.07 82.0946 96.82V89.845L81.2396 89.8V88.525H85.3346C86.4946 88.525 87.3846 88.74 88.0046 89.17C88.6246 89.6 88.9346 90.305 88.9346 91.285C88.9346 91.965 88.7546 92.525 88.3946 92.965C88.0446 93.405 87.6246 93.725 87.1346 93.925C87.4946 94.055 87.7796 94.36 87.9896 94.84L89.0696 97.195L89.9246 97.225V98.5H86.2196V97.285L86.6546 97.24C86.8846 97.21 86.9996 97.12 86.9996 96.97C86.9996 96.91 86.9796 96.84 86.9396 96.76L86.2346 95.26C86.1246 95.01 85.9996 94.835 85.8596 94.735C85.7296 94.625 85.5396 94.57 85.2896 94.57H83.9246V97.18L84.8996 97.225V98.5H81.1646ZM83.9246 93.145H85.2296C86.4596 93.145 87.0746 92.595 87.0746 91.495C87.0746 90.865 86.9096 90.455 86.5796 90.265C86.2596 90.075 85.7396 89.98 85.0196 89.98H83.9246V93.145ZM94.9563 88.345C96.1463 88.345 97.1413 88.765 97.9413 89.605C98.7413 90.445 99.1413 91.73 99.1413 93.46C99.1413 95.18 98.7413 96.485 97.9413 97.375C97.1513 98.255 96.0763 98.695 94.7163 98.695C93.3663 98.695 92.3063 98.255 91.5363 97.375C90.7663 96.495 90.3813 95.215 90.3813 93.535C90.3813 92.615 90.5163 91.81 90.7863 91.12C91.0563 90.42 91.4113 89.88 91.8513 89.5C92.7413 88.73 93.7763 88.345 94.9563 88.345ZM92.2563 93.46C92.2563 95.94 93.1163 97.18 94.8363 97.18C95.7563 97.18 96.4013 96.8 96.7713 96.04C97.1113 95.37 97.2812 94.55 97.2812 93.58C97.2812 92.71 97.1313 91.91 96.8313 91.18C96.6613 90.78 96.4013 90.465 96.0513 90.235C95.7113 90.005 95.2663 89.89 94.7163 89.89C94.1663 89.89 93.6913 90.07 93.2913 90.43C92.9013 90.79 92.6313 91.225 92.4813 91.735C92.3313 92.245 92.2563 92.82 92.2563 93.46Z" fill="white"/>
</svg>
