<?xml version="1.0" encoding="utf-8"?>
<!-- Generator: Adobe Illustrator 24.0.1, SVG Export Plug-In . SVG Version: 6.00 Build 0)  -->
<svg version="1.1" id="Слой_1" xmlns="http://www.w3.org/2000/svg" xmlns:xlink="http://www.w3.org/1999/xlink" x="0px" y="0px"
	 viewBox="0 0 115 136" style="enable-background:new 0 0 115 136;" xml:space="preserve">
<style type="text/css">
	.st0{fill:#FF5C00;}
	.st1{fill:#FFFFFF;}
</style>
<path class="st0" d="M0,0h115v126L0,136V0z"/>
<g>
	<path class="st1" d="M35.9,25.5c8.1,0,15.6,2.4,15.6,12c0,4.8-2.7,8.1-6.6,10.1c5.4,1.4,9.1,5.1,9.1,11.4c0,9.4-6.5,14.3-18.4,14.3
		H15.2v-5.8l2.4-0.2c1.2-0.1,2.1-0.6,2.1-2V31.8l-4.1-0.2v-6.1H35.9z M28.5,45.1h5.3c6.2,0,8.7-2.9,8.7-6.7c0-5.2-3.5-6.3-8.2-6.3
		h-5.8V45.1z M28.5,66.6h6.8c7.1,0,9.4-3.2,9.4-7.6c0-4.8-3.3-7.4-9-7.4h-7.1V66.6z"/>
	<path class="st1" d="M82.6,47.7l12.6,19l4.5,0.3v6.3h-20v-5.9l2.2-0.2c1.9-0.2,2.6-1.4,1.7-2.7l-6.5-10L68.9,67l3.5,0.2v6.1H55.8
		v-5.8l2.2-0.2c1.1-0.1,1.8-0.9,2.7-2.3l11.7-16.7L61.5,32.2l-4-0.4v-6.3h19.1v5.9l-1.8,0.2c-2,0.2-2.5,1.5-1.6,3l4.8,7.6l7-10.3
		l-3.6-0.2v-6.1h16.5v5.8l-2.2,0.2c-1.1,0.1-1.8,0.9-2.7,2.3L82.6,47.7z"/>
</g>
<g>
	<path class="st1" d="M23.1,96.3L23.1,96.3l3.4-8.9h3.9V89L29.8,89c-0.4,0-0.6,0.2-0.6,0.7l0.5,9l1.2,0.1v1.7h-4.8v-1.6l0.7-0.1
		c0.3,0,0.5-0.1,0.5-0.5l-0.4-7h0l-3,7.9H22l-3-7.8h0l-0.4,7.3l1.3,0.1v1.7h-4.7v-1.6l0.7-0.1c0.3,0,0.5-0.2,0.5-0.5l0.5-9.2
		l-1.2-0.1v-1.7h4L23.1,96.3z"/>
	<path class="st1" d="M35.8,89.1L34.6,89v-1.6h4.5l4,11.4h0l1.1,0.1v1.7h-5.1v-1.6l0.8-0.1c0.4,0,0.6-0.2,0.5-0.6L40,97h-4.6
		l-0.6,1.7l1.2,0.1v1.7h-4.6v-1.6l0.7-0.1c0.3,0,0.5-0.2,0.6-0.6L35.8,89.1z M35.9,95.2h3.7l-1.8-5.6h-0.1L35.9,95.2z"/>
	<path class="st1" d="M45,98.9l0.7-0.1c0.3,0,0.6-0.2,0.6-0.6v-9.2l-1.1-0.1v-1.7h5.4c2.9,0,4.7,0.9,4.7,3.6c0,2-1.3,3-2.4,3.5
		c0.5,0.2,0.8,0.5,1.1,1.2l1.4,3.1l1.1,0v1.7h-4.9v-1.6l0.6-0.1c0.5-0.1,0.6-0.2,0.4-0.6l-0.9-2c-0.3-0.6-0.6-0.9-1.2-0.9h-1.8v3.4
		l1.3,0.1v1.7H45V98.9z M50.4,93.5c1.7,0,2.4-0.8,2.4-2.2c0-1.8-1-2-2.7-2h-1.4v4.2H50.4z"/>
	<path class="st1" d="M58.6,89.1l-1.1-0.1v-1.7h4.7V89L61.6,89c-0.3,0-0.6,0.2-0.6,0.6V94l4-4.9l-1.1-0.1v-1.7h4.6V89L67.9,89
		c-0.3,0-0.5,0.2-0.8,0.6L64.3,93l3.5,5.7l1,0.1v1.7h-5.1v-1.6l0.6-0.1c0.4,0,0.5-0.2,0.3-0.6l-2-3.4L61,96.9v1.8l1.1,0.1v1.7h-4.7
		v-1.6l0.7-0.1c0.4,0,0.6-0.2,0.6-0.7V89.1z"/>
	<path class="st1" d="M69.7,100.5v-1.6l0.7-0.1c0.3,0,0.6-0.2,0.6-0.6v-9.2l-1.1-0.1v-1.7h9v3.3l-2,0.1V90c0-0.4,0-0.6-0.6-0.6h-2.9
		v3.4h4.6v2h-4.6v3.7h3.2c0.5,0,0.6-0.2,0.6-0.6v-1l2,0.1v3.5H69.7z"/>
	<path class="st1" d="M84.2,89.3h-1.5c-0.4,0-0.5,0.3-0.5,0.6v0.9l-2-0.1v-3.4h10.3v3.4l-2,0.1V90c0-0.4,0-0.6-0.6-0.6h-1.3v9.4
		l1.6,0.1v1.7h-5.6v-1.6l1-0.1c0.4,0,0.6-0.2,0.6-0.6V89.3z"/>
	<path class="st1" d="M97.9,96.8c0-1.2-1.1-1.6-2.5-2c-2-0.5-3.8-1.3-3.8-3.9c0-2.4,1.9-3.9,4.6-3.9c1.3,0,2.5,0.3,3.7,0.8v3l-2,0.1
		v-1.1c0-0.4-0.1-0.5-0.4-0.7c-0.4-0.1-0.9-0.2-1.3-0.2c-1.2,0-2.1,0.5-2.1,1.7c0,1.2,1.1,1.6,2.6,2c1.8,0.6,3.7,1.4,3.7,3.9
		c0,2.6-2.1,4-4.8,4c-1.6,0-2.8-0.3-4-0.8v-3.1l2-0.1v1.2c0,0.4,0.1,0.5,0.4,0.7c0.4,0.1,0.9,0.2,1.4,0.2
		C96.9,98.7,97.9,98.3,97.9,96.8z"/>
</g>
</svg>
