<svg width="17" height="14" viewBox="0 0 17 14" fill="none" xmlns="http://www.w3.org/2000/svg">
<path d="M0.85 7.86733H14.0981L9.5387 12.5196C9.20678 12.8583 9.20678 13.4075 9.53849 13.746C9.87041 14.0847 10.4089 14.0847 10.7408 13.746L16.751 7.6132C16.7905 7.57288 16.8258 7.52843 16.8568 7.48116C16.871 7.45926 16.881 7.43562 16.8933 7.41286C16.9074 7.38597 16.9235 7.36038 16.9348 7.33198C16.9469 7.30271 16.9537 7.27235 16.9622 7.24199C16.9692 7.21793 16.9783 7.19494 16.9832 7.17022C16.9943 7.11385 17 7.05704 17 7.00001C17 6.99936 16.9998 6.99871 16.9998 6.99806C16.9996 6.9419 16.994 6.88553 16.9832 6.83024C16.9781 6.80422 16.9686 6.78015 16.9611 6.75456C16.9528 6.72573 16.9465 6.69645 16.935 6.66848C16.9227 6.63834 16.9061 6.61102 16.8908 6.58262C16.8793 6.56137 16.8702 6.53969 16.857 6.5193C16.826 6.47139 16.7903 6.42672 16.7505 6.38617L10.7406 0.254042C10.4087 -0.0846443 9.87041 -0.0846446 9.53849 0.253825C9.20656 0.592511 9.20656 1.14174 9.53849 1.48064L14.0979 6.1327H0.85C0.380587 6.1327 0 6.52104 0 7.00001C0 7.47899 0.380587 7.86733 0.85 7.86733Z" fill="#0177FF"/>
</svg>
