<svg width="59" height="60" viewBox="0 0 59 60" fill="none" xmlns="http://www.w3.org/2000/svg">
<path d="M32.6994 36.7854C31.7744 37.7256 30.8494 39.1358 30.1556 40.311C25.9931 37.0204 22.2931 33.0248 19.0556 29.0292C20.4431 28.3241 21.5994 27.3839 22.5244 26.4438C27.1494 21.743 25.5306 15.6321 20.9056 10.9313C16.2806 6.23056 10.4994 4.35026 5.64312 9.28605C0.786869 14.2218 0.324368 22.6832 4.02437 28.089C10.7306 38.4307 20.9056 48.7723 31.0806 55.5884C36.6306 59.349 44.9556 58.6439 49.5806 53.9431C54.2056 49.2424 52.5869 43.1314 47.9619 38.4307C43.3369 33.7299 37.3244 31.8496 32.6994 36.7854Z" stroke="white" stroke-width="3" stroke-miterlimit="10" stroke-linejoin="round"/>
<path d="M56.5187 25.2688C56.5187 12.3417 46.3437 2 33.625 2" stroke="white" stroke-width="3" stroke-miterlimit="10" stroke-linecap="round" stroke-linejoin="round"/>
<path d="M45.1867 24.7988C45.1867 18.6878 40.0992 13.752 33.8555 13.752" stroke="white" stroke-width="3" stroke-miterlimit="10" stroke-linecap="round" stroke-linejoin="round"/>
</svg>
