<svg width="17" height="14" viewBox="0 0 17 14" fill="none" xmlns="http://www.w3.org/2000/svg">
<path d="M16.15 6.13267L2.9019 6.13267L7.4613 1.4804C7.79323 1.14171 7.79323 0.592483 7.46151 0.254013C7.12959 -0.0846728 6.59111 -0.0846729 6.25919 0.254013L0.249049 6.38679C0.209525 6.42712 0.17425 6.47157 0.143225 6.51884C0.128989 6.54074 0.119 6.56438 0.106675 6.58714C0.0926501 6.61403 0.0765006 6.63962 0.0652377 6.66802C0.0531241 6.69729 0.0463263 6.72765 0.0378253 6.758C0.0308138 6.78207 0.0216757 6.80506 0.0167891 6.82977C0.00573793 6.88615 6.16946e-07 6.94296 6.11961e-07 6.99998C6.11904e-07 7.00064 0.000212328 7.00129 0.000212327 7.00194C0.000425946 7.05809 0.00595153 7.11447 0.0167891 7.16976C0.0218874 7.19578 0.031449 7.21985 0.0388876 7.24543C0.047175 7.27427 0.0535494 7.30354 0.0650259 7.33152C0.0773493 7.36165 0.0939241 7.38898 0.109225 7.41738C0.1207 7.43863 0.129838 7.46031 0.143012 7.48069C0.174037 7.52861 0.209738 7.57328 0.249476 7.61383L6.2594 13.746C6.59132 14.0846 7.12959 14.0846 7.46151 13.7462C7.79344 13.4075 7.79344 12.8583 7.46151 12.5194L2.90211 7.8673L16.15 7.8673C16.6194 7.8673 17 7.47896 17 6.99999C17 6.52101 16.6194 6.13267 16.15 6.13267Z" fill="#D1D1D1"/>
</svg>
