<svg width="32" height="40" viewBox="0 0 32 40" fill="none" xmlns="http://www.w3.org/2000/svg">
<path d="M31.7142 1.42857V38.5714C31.7142 38.9503 31.5637 39.3137 31.2958 39.5816C31.0279 39.8495 30.6645 40 30.2856 40H1.71422C1.33534 40 0.971973 39.8495 0.704064 39.5816C0.436155 39.3137 0.285645 38.9503 0.285645 38.5714V35.7143H3.14279V37.1429H28.8571V2.85714H3.14279V7.14286H0.285645V1.42857C0.285645 1.04969 0.436155 0.686328 0.704064 0.418419C0.971973 0.15051 1.33534 0 1.71422 0H30.2856C30.6645 0 31.0279 0.15051 31.2958 0.418419C31.5637 0.686328 31.7142 1.04969 31.7142 1.42857ZM10.6999 26.1286L12.7285 28.1571L19.8714 21.0143C20.0053 20.8815 20.1115 20.7235 20.1841 20.5494C20.2566 20.3753 20.2939 20.1886 20.2939 20C20.2939 19.8114 20.2566 19.6247 20.1841 19.4506C20.1115 19.2765 20.0053 19.1185 19.8714 18.9857L12.7285 11.8429L10.6999 13.8714L15.4142 18.5714H0.285645V21.4286H15.4142L10.6999 26.1286Z" fill="white"/>
</svg>
