<svg width="48" height="49" viewBox="0 0 48 49" fill="none" xmlns="http://www.w3.org/2000/svg">
<path d="M40.3358 13.2383C40.3358 13.2383 12.6766 13.2383 7.66362 13.2383C4.31364 13.2383 2.21826 16.5055 2.21826 18.6836V41.9724C2.21826 44.7495 4.46829 46.9995 7.24542 46.9995H40.754C43.53 46.9995 45.7812 44.7495 45.7812 41.9724V18.5159C45.7812 15.7421 43.1118 13.2383 40.3358 13.2383Z" stroke="white" stroke-width="3" stroke-miterlimit="10" stroke-linecap="round" stroke-linejoin="round"/>
<path d="M37.0686 9.97068V6.331C37.0686 2.7033 36.2855 1.6567 31.7844 2.84379C28.478 3.71613 9.1306 9.07982 9.1306 9.07982C3.17229 11.3255 2.26291 13.2368 2.26291 17.592L2.21826 20.2657" stroke="white" stroke-width="3" stroke-miterlimit="10" stroke-linejoin="round"/>
<path d="M38.7044 32.8423C37.2004 32.8423 35.9796 31.6248 35.9796 30.1207C35.9796 28.6167 37.2004 27.397 38.7044 27.397C40.2041 27.397 41.425 28.6167 41.425 30.1207C41.425 31.6248 40.2041 32.8423 38.7044 32.8423Z" fill="white"/>
</svg>
