<svg width="46" height="51" viewBox="0 0 46 51" fill="none" xmlns="http://www.w3.org/2000/svg">
<path d="M16.2054 23.2216C18.7165 23.2216 20.7522 21.1859 20.7522 18.6748C20.7522 16.1636 18.7165 14.1279 16.2054 14.1279C13.6942 14.1279 11.6585 16.1636 11.6585 18.6748C11.6585 21.1859 13.6942 23.2216 16.2054 23.2216Z" stroke="white" stroke-width="3" stroke-linecap="round" stroke-linejoin="round"/>
<path d="M29.7939 36.8105C32.3051 36.8105 34.3408 34.7748 34.3408 32.2637C34.3408 29.7525 32.3051 27.7168 29.7939 27.7168C27.2828 27.7168 25.2471 29.7525 25.2471 32.2637C25.2471 34.7748 27.2828 36.8105 29.7939 36.8105Z" stroke="white" stroke-width="3" stroke-linecap="round" stroke-linejoin="round"/>
<path d="M16.825 34.6136L29.1746 16.3252" stroke="white" stroke-width="3" stroke-linecap="round" stroke-linejoin="round"/>
<path d="M43.1141 25.4693C43.1141 21.4942 45.238 16.9107 43.3817 13.7003C41.4647 10.3889 36.3689 9.96233 33.0575 8.04541C29.8471 6.18906 26.9761 1.9375 22.9997 1.9375C19.0232 1.9375 16.1535 6.18906 12.9431 8.04541C9.63169 9.96233 4.53587 10.3838 2.61895 13.7003C0.761338 16.9107 2.88649 21.4942 2.88649 25.4693C2.88649 29.4445 0.761338 34.0267 2.61895 37.2372C4.53587 40.5486 9.63169 40.9764 12.9431 42.892C16.1535 44.7496 19.0245 48.9999 22.9997 48.9999C26.9749 48.9999 29.8471 44.7496 33.0575 42.892C36.3689 40.9764 41.4647 40.5486 43.3804 37.2372C45.238 34.0267 43.1141 29.4395 43.1141 25.4693Z" stroke="white" stroke-width="3" stroke-linecap="round" stroke-linejoin="round"/>
</svg>
