<svg width="78" height="32" viewBox="0 0 78 32" fill="none" xmlns="http://www.w3.org/2000/svg">
<path d="M17.9047 5.845C17.5747 5.275 16.3447 4.99 14.2147 4.99C11.4247 4.99 9.30967 5.935 7.86967 7.825C6.42967 9.715 5.70967 12.445 5.70967 16.015C5.70967 23.425 8.48467 27.13 14.0347 27.13C14.1247 27.13 14.5147 27.13 15.2047 27.13C15.9247 27.13 16.5997 27.04 17.2297 26.86C17.8597 26.65 18.2347 26.44 18.3547 26.23C18.4747 26.02 18.5347 25.69 18.5347 25.24V21.64L23.1247 21.955V29.74C20.7847 30.97 17.8147 31.585 14.2147 31.585C9.62467 31.585 6.11467 30.295 3.68467 27.715C1.28467 25.135 0.0846681 21.295 0.0846681 16.195C0.0846681 13.375 0.489668 10.915 1.29967 8.815C2.10967 6.715 3.20467 5.08 4.58467 3.91C7.28467 1.66 10.4947 0.534998 14.2147 0.534998C17.2147 0.534998 20.0347 1.15 22.6747 2.38V10.03L18.0847 10.345V6.835C18.0847 6.385 18.0247 6.055 17.9047 5.845ZM26.885 31V27.355L28.37 27.22C29.24 27.13 29.675 26.71 29.675 25.96V5.035L27.11 4.9V1.075H48.845V8.545L44.255 8.86V7.06C44.255 6.55 44.18 6.19 44.03 5.98C43.88 5.77 43.52 5.665 42.95 5.665H35.165V13.63H46.235V18.22H35.165V27.04L39.17 27.175V31H26.885ZM51.3186 31V27.355L52.8036 27.22C53.6736 27.13 54.1086 26.71 54.1086 25.96V5.035L51.5436 4.9V1.075H63.8736C68.2836 1.075 71.7186 2.245 74.1786 4.585C76.6686 6.925 77.9136 10.39 77.9136 14.98C77.9136 17.83 77.5386 20.32 76.7886 22.45C76.0386 24.55 75.0186 26.2 73.7286 27.4C71.1486 29.8 67.9386 31 64.0986 31H51.3186ZM59.5986 5.44V26.68H64.1886C66.7686 26.68 68.7786 25.75 70.2186 23.89C71.6586 22.03 72.3786 19.33 72.3786 15.79C72.3786 8.89 69.4536 5.44 63.6036 5.44H59.5986Z" fill="white"/>
</svg>
