<svg width="139" height="112" viewBox="0 0 139 112" fill="none" xmlns="http://www.w3.org/2000/svg">
<path d="M29.0173 95.0142C25.5511 95.2018 22.4662 95.9898 19 95.8773L19.3466 96.1775C21.9312 99.1142 25.2006 101.24 28.8094 102.332C30.5073 102.979 32.3271 103.16 34.1056 102.858C35.884 102.557 37.5657 101.783 39 100.605C37.939 98.8035 36.4568 97.3373 34.7037 96.3554C32.9506 95.3735 30.9889 94.9108 29.0173 95.0142Z" fill="white"/>
<path d="M28 92.571C27.3696 90.8306 26.2424 89.3163 24.76 88.2184C23.2775 87.1204 21.5059 86.4876 19.6673 86.3993C16.3848 86.1452 13.2465 86.3993 10 86C11.8844 89.0824 14.6685 91.5041 17.9719 92.934C19.5484 93.6928 21.284 94.0562 23.0303 93.993C24.7767 93.9297 26.4818 93.4418 28 92.571Z" fill="white"/>
<path d="M20 83.184C19.7968 81.5002 19.0681 79.9292 17.9231 78.7064C16.7781 77.4836 15.2783 76.6747 13.6483 76.4009C10.7416 75.811 7.83493 75.811 5 75C6.08899 78.0624 8.14927 80.6594 10.8493 82.373C12.1902 83.2752 13.7281 83.8216 15.3252 83.9632C16.9222 84.1047 18.5284 83.837 20 83.184Z" fill="white"/>
<path d="M13.9545 73.5518C14.1324 71.9995 13.7849 70.4312 12.9721 69.118C12.1592 67.8047 10.9322 66.8291 9.50299 66.3598C6.99003 65.4609 4.36936 65.1237 2 64C2.31172 66.9848 3.66644 69.7452 5.80534 71.7538C6.88513 72.7871 8.21092 73.499 9.64435 73.8152C11.0778 74.1315 12.5663 74.0405 13.9545 73.5518Z" fill="white"/>
<path d="M9.53904 63.8479C10.1177 62.5853 10.1528 61.1708 9.63735 59.8857C9.12191 58.6007 8.09372 57.5393 6.75736 56.9128C4.47038 56.0685 2.24328 55.0957 0.0889401 54C-0.272871 56.5934 0.477757 59.2139 2.18473 61.3166C3.00911 62.3417 4.14311 63.1268 5.44877 63.5762C6.75444 64.0256 8.17549 64.12 9.53904 63.8479Z" fill="white"/>
<path d="M7.18209 53.9688C8.32739 51.4006 8.46622 49.0351 6.31444 47.3793C4.64099 46.3601 3.0408 45.231 1.525 44C0.769628 46.2033 0.831029 48.5947 1.69853 50.7585C2.12502 51.8047 2.89265 52.6855 3.88338 53.2656C4.87411 53.8456 6.03309 54.0926 7.18209 53.9688Z" fill="white"/>
<path d="M6.39885 44C8.03394 41.495 8.68797 39.0627 7.05288 37.1023C5.74517 35.8234 4.53088 34.4524 3.41935 33C3.16964 33.5685 2.9513 34.1502 2.76531 34.7426C2.06618 36.4673 1.8404 38.3471 2.11128 40.1881C2.25042 41.2313 2.75978 42.1899 3.54667 42.8895C4.33355 43.589 5.34567 43.9831 6.39885 44Z" fill="white"/>
<path d="M8.29674 35C10.4677 32.5526 11.6519 30.0658 10.6256 27.7763C9.69544 26.258 8.90284 24.6595 8.25727 23C6.52925 25.1325 5.42291 27.7004 5.05999 30.4211C4.96944 30.9345 4.9815 31.4608 5.09548 31.9695C5.20945 32.4783 5.42307 32.9594 5.72402 33.3852C6.02496 33.8109 6.40726 34.1728 6.84883 34.45C7.29041 34.7271 7.78252 34.9141 8.29674 35Z" fill="white"/>
<path d="M15 18.5492C14.6421 17.0594 14.4131 15.5364 14.3162 14C12.5548 15.7879 11.1772 17.9779 10.2817 20.4136C9.56367 22.8373 10.2817 24.4407 11.7177 25C12.7025 24.2945 13.5156 23.339 14.0873 22.2154C14.659 21.0918 14.9722 19.8338 15 18.5492Z" fill="white"/>
<path d="M21.3477 9.41379C21.4209 7.92464 21.6394 6.44629 22 5C19.9511 6.5363 18.2048 8.44234 16.8505 10.6207C15.6489 12.7931 15.7862 14.3103 16.8505 15C17.9311 14.4145 18.8851 13.6191 19.6571 12.6601C20.4292 11.7012 21.0038 10.5977 21.3477 9.41379Z" fill="white"/>
<path d="M43.3128 98C44.6309 97.5723 45.7363 96.6025 46.3859 95.3037C47.0355 94.005 47.1762 92.4837 46.777 91.0741C45.685 88.2191 43.8443 85.7625 41.4767 84C40.3681 86.2593 38.4628 88.1852 37.3889 90.5185C35.9339 93.7407 38.7053 96.3704 43.3128 98Z" fill="white"/>
<path d="M27.5808 82.8571C25.7814 85.7143 28.3465 88.3571 32.7491 90C34.1315 89.6322 35.3207 88.803 36.0902 87.6702C36.8596 86.5375 37.1557 85.1803 36.9221 83.8571C36.2002 81.204 34.6395 78.8148 32.4429 77C31.0646 79.1429 28.8824 80.7857 27.5808 82.8571Z" fill="white"/>
<path d="M24.0651 82C24.8988 81.6712 25.6471 81.132 26.2473 80.4275C26.8475 79.7231 27.2821 78.874 27.5146 77.9514C27.5881 77.7337 27.6457 77.5102 27.6871 77.2829C27.6871 76.8743 28.0321 76.5771 27.9976 76.1314C27.7342 73.4974 26.736 71.0111 25.1345 69C23.7892 70.9314 21.685 72.4914 20.5467 74.4971C19.0289 77.2086 20.8226 79.9571 24.0651 82Z" fill="white"/>
<path d="M18.3421 73C19.5818 72.6953 20.6985 71.9875 21.5336 70.9774C22.3687 69.9672 22.8795 68.706 22.9936 67.3731C23.0734 64.7684 22.4044 62.199 21.0739 60C19.5603 61.8627 17.3823 63.2985 15.9794 65.2388C13.9121 67.8776 15.3149 70.7493 18.3421 73Z" fill="white"/>
<path d="M18.8177 57.8889C19.2082 55.5691 18.9683 53.1778 18.1267 51C16.5718 52.6296 14.6713 53.8889 13.1855 55.5926C11.1123 57.9259 11.9416 60.6296 14.2567 63C15.4091 62.7403 16.4613 62.1133 17.2753 61.2012C18.0892 60.289 18.6269 59.1344 18.8177 57.8889Z" fill="white"/>
<path d="M11.5208 53C12.6499 52.7798 13.6994 52.2532 14.558 51.4761C15.4167 50.6989 16.0524 49.7001 16.398 48.5855C17.0716 46.457 17.1821 44.1857 16.7184 42C15.0808 43.4836 13.1584 44.5691 11.4852 46.125C11.0143 46.5618 10.6388 47.0941 10.383 47.6876C10.1272 48.2811 9.99671 48.9226 10.0001 49.5705C10.0034 50.2185 10.1405 50.8585 10.4024 51.4493C10.6644 52.04 11.0454 52.5683 11.5208 53Z" fill="white"/>
<path d="M11.031 44C12.2457 43.7785 13.3866 43.2672 14.3539 42.5109C15.3211 41.7546 16.0853 40.7764 16.5793 39.662C17.5656 37.5781 18.0503 35.2983 17.9959 33C16.1071 34.4718 14.0609 35.5176 12.0935 36.8732C11.5462 37.2709 11.0842 37.7712 10.7343 38.3455C10.3844 38.9197 10.1534 39.5564 10.0546 40.2189C9.95585 40.8814 9.99129 41.5565 10.1589 42.2055C10.3265 42.8545 10.6229 43.4643 11.031 44Z" fill="white"/>
<path d="M13.4236 35C14.3893 34.7933 15.3078 34.3289 16.1161 33.6385C16.9245 32.9481 17.6037 32.0481 18.1073 31C19.081 29.0205 19.7247 26.8166 20 24.52V24C18.396 25.4 16.792 26.36 15.0917 27.8C14.1653 28.5489 13.4867 29.6893 13.1802 31.0119C12.8738 32.3345 12.9602 33.7505 13.4236 35Z" fill="white"/>
<path d="M16.0752 25C17.1964 24.8298 18.2699 24.4484 19.2321 23.8785C20.1943 23.3086 21.0256 22.5618 21.6765 21.6824C23.1015 19.9701 24.2238 18.0512 25 16C23.0582 17.1294 20.967 17.7647 19.1746 19.0706C18.0717 19.6336 17.181 20.5066 16.6258 21.5688C16.0706 22.631 15.8782 23.83 16.0752 25Z" fill="white"/>
<path d="M30 8C28.1667 9 26.4333 9.66667 24.6333 10.7C23.6079 11.1761 22.7294 11.9194 22.0901 12.8519C21.4509 13.7845 21.0743 14.8718 21 16C22.9967 15.6827 24.8158 14.6668 26.1333 13.1333C27.6363 11.5945 28.9358 9.86932 30 8Z" fill="white"/>
<path d="M59.8204 108.314C10.3171 85.4845 -4.3901 47.9209 23.4025 8.75268C23.4025 9.04444 23.4025 9.4456 23.4025 9.70089C26.127 8.89733 28.4852 7.18293 30.0742 4.85045C30.8342 3.16287 31.7342 1.5405 32.765 0C30.0725 1.18977 27.585 2.7895 25.3929 4.74104C24.7843 5.21638 24.29 5.81959 23.9457 6.50707C23.6015 7.19455 23.4159 7.94911 23.4025 8.71621C-4.97986 48.1033 9.5062 85.9222 58.7514 109.336C67.6716 113.603 68.7406 112.363 59.8204 108.314Z" fill="white"/>
<path d="M110.482 95.0121C108.409 94.9169 106.348 95.3849 104.508 96.3688C102.667 97.3528 101.112 98.8178 100 100.616C101.506 101.788 103.272 102.559 105.139 102.859C107.007 103.159 108.917 102.979 110.7 102.335C114.489 101.248 117.922 99.1313 120.636 96.2076L121 95.9087C117.36 95.9834 114.049 95.1989 110.482 95.0121Z" fill="white"/>
<path d="M111 92.571C112.518 93.4418 114.223 93.9297 115.97 93.993C117.716 94.0562 119.452 93.6928 121.028 92.934C124.338 91.5144 127.125 89.0903 129 86C125.754 86.5083 122.615 86 119.369 86.3993C117.524 86.4806 115.744 87.1101 114.255 88.2086C112.765 89.307 111.633 90.8251 111 92.571Z" fill="white"/>
<path d="M119 83.1672C120.567 83.8272 122.278 84.1018 123.982 83.9663C125.685 83.8309 127.327 83.2897 128.761 82.3912C131.641 80.6733 133.838 78.07 135 75C131.976 75.85 128.876 75.85 125.775 76.4413C124.048 76.7119 122.456 77.512 121.236 78.7232C120.016 79.9345 119.232 81.4926 119 83.1672Z" fill="white"/>
<path d="M130.524 66.3663C129.086 66.8369 127.852 67.8152 127.034 69.132C126.216 70.4488 125.867 72.0215 126.046 73.578C127.427 74.0465 128.903 74.1266 130.324 73.8099C131.745 73.4933 133.06 72.7912 134.136 71.775C136.058 69.9481 137.33 67.4996 137.747 64.8263C137.747 64.5258 137.964 64.2629 138 64C135.58 65.1268 132.944 65.4649 130.524 66.3663Z" fill="white"/>
<path d="M138.955 54C136.792 55.1036 134.553 56.0778 132.25 56.9163C130.912 57.5495 129.884 58.6126 129.367 59.897C128.85 61.1815 128.88 62.5947 129.453 63.8597C130.845 64.1248 132.292 64.0126 133.614 63.5372C134.935 63.0618 136.073 62.2442 136.886 61.1865C138.463 59.168 139.197 56.7067 138.955 54.243C138.955 54.243 138.955 54.243 138.955 54Z" fill="white"/>
<path d="M131.961 53.9593C133.268 54.1004 134.592 53.8726 135.734 53.3103C136.875 52.7481 137.77 51.8824 138.283 50.8448C139.239 48.6365 139.239 46.2084 138.283 44C136.535 45.2468 134.691 46.3902 132.761 47.4224C130.481 49.031 130.641 51.4267 131.961 53.9593Z" fill="white"/>
<path d="M131.914 37.1022C130.327 39.0626 130.976 41.4949 132.563 43.9998C133.626 44.0092 134.656 43.627 135.46 42.925C136.263 42.223 136.784 41.2497 136.924 40.188C137.148 38.3341 136.874 36.4538 136.131 34.7425C135.947 34.1502 135.73 33.5685 135.482 33C134.391 34.4512 133.199 35.8221 131.914 37.1022Z" fill="white"/>
<path d="M131.253 35C131.681 34.9141 132.091 34.7271 132.459 34.45C132.827 34.1728 133.146 33.8109 133.397 33.3852C133.647 32.9594 133.825 32.4783 133.92 31.9695C134.015 31.4608 134.025 30.9345 133.95 30.4211C133.648 27.7004 132.726 25.1325 131.286 23C130.748 24.6595 130.087 26.258 129.312 27.7763C128.457 30.0658 129.444 32.5921 131.253 35Z" fill="white"/>
<path d="M127.214 25C128.768 24.4482 129.439 22.8662 128.698 20.4749C127.933 18.2855 126.729 16.2913 125.166 14.6254C124.989 14.4047 124.883 14.1839 124.706 14C124.635 15.5795 124.398 17.1462 124 18.6722C124.015 19.9171 124.314 21.1404 124.873 22.2408C125.432 23.3412 126.234 24.287 127.214 25Z" fill="white"/>
<path d="M122.912 15C124.262 14.3103 124.46 12.7931 122.912 10.6207C121.35 8.45107 119.347 6.5465 117 5C117.385 6.45044 117.624 7.92729 117.714 9.41379C118.112 10.5977 118.776 11.7012 119.668 12.6601C120.561 13.6191 121.663 14.4145 122.912 15Z" fill="white"/>
<path d="M96.5528 98C101.175 96.4787 104.059 93.9548 102.634 91.0851C101.592 88.9069 99.6456 87.109 98.5336 85C96.1586 86.6453 94.3122 88.9386 93.2168 91.6037C92.8312 92.8922 92.9635 94.2792 93.5858 95.4725C94.2082 96.6658 95.2719 97.5719 96.5528 98Z" fill="white"/>
<path d="M106.793 90C110.812 88.1944 113.099 85.5222 111.47 82.7778C110.293 80.6833 108.318 79.1667 107.071 77C105.08 78.8266 103.677 81.2472 103.052 83.9333C102.875 85.244 103.155 86.5774 103.842 87.6908C104.529 88.8042 105.576 89.6236 106.793 90Z" fill="white"/>
<path d="M113.904 69C113.809 69.1516 113.727 69.3118 113.659 69.4788C112.143 71.3741 111.214 73.7135 111 76.1813C111 76.6232 111.245 76.9178 111.315 77.3229C111.299 77.5436 111.299 77.7652 111.315 77.9858C111.551 78.9006 111.992 79.7425 112.601 80.4409C113.209 81.1393 113.969 81.674 114.814 82C118.314 80.0113 120.063 77.2493 118.314 74.6346C116.984 72.6459 114.989 70.9518 113.624 69.1841L113.904 69Z" fill="white"/>
<path d="M123.143 65.2388C121.85 63.2985 119.912 61.8627 118.684 60C117.534 62.2066 116.949 64.7707 117.003 67.3731C117.103 68.706 117.55 69.9672 118.281 70.9774C119.012 71.9875 119.99 72.6953 121.075 73C123.724 70.7493 124.952 67.8776 123.143 65.2388Z" fill="white"/>
<path d="M126.596 55.6646C124.908 53.9342 122.669 52.6552 121.02 51C120.05 53.2082 119.764 55.6371 120.195 57.9969C120.448 59.2276 121.075 60.3594 121.997 61.2496C122.919 62.1399 124.096 62.7489 125.379 63C128.089 60.7806 129.031 58.0345 126.596 55.6646Z" fill="white"/>
<path d="M127.45 46.125C125.82 44.5691 123.905 43.4836 122.239 42C121.812 44.1952 121.959 46.4666 122.665 48.5855C123.009 49.7001 123.642 50.6989 124.497 51.4761C125.352 52.2532 126.397 52.7798 127.521 53C127.993 52.5637 128.368 52.0303 128.623 51.435C128.878 50.8397 129.006 50.1959 129 49.5462C128.993 48.8965 128.851 48.2557 128.584 47.666C128.317 47.0762 127.931 46.551 127.45 46.125Z" fill="white"/>
<path d="M122.016 33C121.913 35.3086 122.308 37.6113 123.169 39.7222C123.608 40.8212 124.287 41.7858 125.146 42.5316C126.005 43.2774 127.018 43.7816 128.097 44C128.457 43.4695 128.718 42.8661 128.864 42.2247C129.01 41.5833 129.039 40.9166 128.948 40.2632C128.857 39.6097 128.648 38.9825 128.334 38.4176C128.02 37.8527 127.607 37.3615 127.118 36.9722C125.616 35.559 123.728 34.4514 122.016 33Z" fill="white"/>
<path d="M124.61 27.8993C122.813 26.4216 120.943 25.4366 119 24L119.073 24.4104C119.435 26.708 120.181 28.9083 121.273 30.8955C121.849 31.971 122.625 32.8945 123.549 33.6029C124.473 34.3113 125.523 34.7879 126.626 35C127.076 33.7381 127.121 32.3404 126.754 31.0455C126.386 29.7506 125.628 28.6386 124.61 27.8993Z" fill="white"/>
<path d="M120.863 19.0706C118.921 17.9059 117.129 17.1294 115 16C115.776 18.0512 116.899 19.9701 118.324 21.6824C118.978 22.559 119.81 23.3038 120.772 23.8734C121.733 24.443 122.806 24.826 123.925 25C124.12 23.8341 123.931 22.6399 123.383 21.5792C122.835 20.5185 121.956 19.6427 120.863 19.0706Z" fill="white"/>
<path d="M115.007 10.7C112.993 9.66667 111.052 9 109 8C110.181 9.85823 111.609 11.5819 113.254 13.1333C114.729 14.6668 116.765 15.6827 119 16C118.924 14.8788 118.513 13.7963 117.811 12.8644C117.11 11.9325 116.141 11.1853 115.007 10.7Z" fill="white"/>
<path d="M116.599 8.76839C116.572 7.98769 116.369 7.22294 116.005 6.53073C115.641 5.83851 115.126 5.23656 114.496 4.76942C112.305 2.8033 109.815 1.19367 107.119 0C108.135 1.55885 109.035 3.18972 109.812 4.87948C111.379 7.23209 113.73 8.95985 116.451 9.75897C116.451 9.50215 116.451 9.09858 116.451 8.80508C143.193 46.7036 130.578 83.1713 85.467 106.321C75.2497 111.568 75.6923 112.925 85.7252 107.679C131.39 83.9785 144.078 46.9971 116.599 8.76839Z" fill="white"/>
</svg>
